<svg xmlns="http://www.w3.org/2000/svg" width="20" height="20" viewBox="0 0 20 20">
    <g fill="#285e68" fill-rule="evenodd">
        <path d="M16.034 4.642l.31 1.239 2.38-.595v11.45l-6.146 1.536-5.106-1.702-6.196 1.549V6.669l2.69-.673-.31-1.238L0 5.672v14.081L7.421 17.9l5.107 1.702L20 17.732V3.651z"/>
        <path d="M10 1.702c-1.778 0-3.617 1.353-3.617 3.617 0 1.717 2.303 4.567 3.617 5.99 1.314-1.423 3.617-4.276 3.617-5.99 0-2.264-1.84-3.617-3.617-3.617zm0 11.438l-.453-.456c-.455-.458-4.44-4.557-4.44-7.365C5.106 2.256 7.593.426 10 .426c2.406 0 4.894 1.83 4.894 4.893 0 2.808-3.986 6.907-4.441 7.365L10 13.14z"/>
        <path d="M10 4.68a.64.64 0 1 0 .002 1.279A.64.64 0 0 0 10 4.681m0 2.553a1.917 1.917 0 0 1-1.915-1.915c0-1.056.86-1.915 1.915-1.915 1.056 0 1.915.86 1.915 1.915 0 1.056-.86 1.915-1.915 1.915"/>
    </g>
</svg>
