<svg xmlns="http://www.w3.org/2000/svg" width="26" height="25" viewBox="0 0 26 25">
    <defs>
        <path id="a" d="M0 10h10L4 6 0 .082z"/>
    </defs>
    <g fill="none" fill-rule="evenodd" transform="translate(1 1)">
        <path fill="#285e68" d="M15.279 17H8.72L8 9.046 8.506 9l.679 7.49h5.63L15.494 9l.506.046z"/>
        <path fill="#285e68" d="M8.974 16.672h6.052l.67-7.37-.164-.014-.642 7.071a.164.164 0 0 1-.164.15H9.274a.164.164 0 0 1-.164-.15l-.642-7.071-.164.015.67 7.37zm6.201.328h-6.35a.164.164 0 0 1-.164-.149l-.698-7.682a.164.164 0 0 1 .148-.178l.49-.044a.165.165 0 0 1 .178.149l.644 7.084h5.153l.645-7.085a.164.164 0 0 1 .178-.148l.49.044c.09.008.156.088.148.178l-.698 7.682a.164.164 0 0 1-.164.149z"/>
        <path fill="#285e68" d="M7.164 9.213h9.672v-.492H7.164z"/>
        <path fill="#285e68" d="M7.328 9.05h9.344v-.165H7.328v.164zm9.508.327H7.164A.164.164 0 0 1 7 9.213v-.492c0-.09.073-.164.164-.164h9.672c.09 0 .164.074.164.164v.492c0 .09-.073.164-.164.164z"/>
        <path fill="#285e68" d="M13.23 8.967A1.23 1.23 0 0 0 12 7.737a1.23 1.23 0 0 0-1.23 1.23h-.491c0-.949.772-1.721 1.721-1.721.95 0 1.721.772 1.721 1.721h-.491z"/>
        <path fill="#285e68" d="M13.384 8.803h.165A1.56 1.56 0 0 0 12 7.41a1.56 1.56 0 0 0-1.549 1.393h.165A1.395 1.395 0 0 1 12 7.573c.713 0 1.303.539 1.384 1.23m.337.328h-.491a.164.164 0 0 1-.164-.164 1.067 1.067 0 0 0-2.132 0c0 .09-.073.164-.163.164h-.492a.164.164 0 0 1-.164-.164c0-1.04.845-1.885 1.885-1.885s1.885.846 1.885 1.885c0 .09-.073.164-.164.164"/>
        <rect width="24" height="23" stroke="#285e68" rx="2"/>
    </g>
</svg>
