<svg xmlns="http://www.w3.org/2000/svg" width="20" height="20" viewBox="0 0 20 20">
    <g fill="#C6C6C6" fill-rule="evenodd">
        <path d="M9.333 4.667h1.334V2H9.333zM13.879 6l-.546-.545L14.788 4l.545.545zM15.333 10.667H18V9.333h-2.667zM2 10.667h2.667V9.333H2z"/>
        <path d="M10 .952C5.011.952.952 5.012.952 10c0 4.989 4.06 9.048 9.048 9.048 4.989 0 9.048-4.06 9.048-9.048 0-4.989-4.06-9.048-9.048-9.048M10 20C4.486 20 0 15.514 0 10S4.486 0 10 0s10 4.486 10 10-4.486 10-10 10"/>
        <path d="M8.654 9.327L4.247 4.921l.674-.674 4.406 4.407z"/>
        <path d="M10 8.571A1.43 1.43 0 0 0 8.571 10 1.43 1.43 0 0 0 10 11.429 1.43 1.43 0 0 0 11.429 10 1.43 1.43 0 0 0 10 8.571m0 3.81A2.383 2.383 0 0 1 7.619 10 2.383 2.383 0 0 1 10 7.619 2.383 2.383 0 0 1 12.381 10 2.383 2.383 0 0 1 10 12.381"/>
    </g>
</svg>
